<?xml version="1.0" encoding="UTF-8"?>
<svg width="53px" height="28px" viewBox="0 0 53 28" version="1.1" xmlns="http://www.w3.org/2000/svg" xmlns:xlink="http://www.w3.org/1999/xlink">
    <!-- Generator: Sketch 53.2 (72643) - https://sketchapp.com -->
    <title>Grist</title>
    <desc>Created with Sketch.</desc>
    <g id="Welcome" stroke="none" stroke-width="1" fill="none" fill-rule="evenodd">
        <g id="Mobile-Portrait" transform="translate(-17.000000, -17.000000)" fill="#F7FFF7" fill-rule="nonzero">
            <path d="M23.468,44.796 C22.1053265,44.796 21.0086708,44.4460035 20.178,43.746 C19.3473292,43.0459965 18.932,42.1266724 18.932,40.988 C18.932,40.2786631 19.0999983,39.6253363 19.436,39.028 C19.7720017,38.4306637 20.2293304,37.9593351 20.808,37.614 C21.3866696,37.2686649 22.0213299,37.096 22.712,37.096 C23.4213369,37.096 23.9953311,37.2733316 24.434,37.628 C24.8726689,37.9826684 25.092,38.4493304 25.092,39.028 C25.092,39.4760022 24.9893344,39.8306654 24.784,40.092 C24.6159992,39.8679989 24.3873348,39.6906673 24.098,39.56 C23.8086652,39.4293327 23.5053349,39.364 23.188,39.364 C22.6279972,39.364 22.1706684,39.5506648 21.816,39.924 C21.4613316,40.2973352 21.284,40.7826637 21.284,41.38 C21.284,41.9773363 21.4566649,42.4626648 21.802,42.836 C22.1473351,43.2093352 22.5813307,43.396 23.104,43.396 C23.7573366,43.396 24.317331,43.1066696 24.784,42.528 C25.250669,41.9493304 25.6053321,41.0906724 25.848,39.952 L27.248,33.764 L27.136,33.764 C26.6319975,34.4733369 26.0206703,35.0146648 25.302,35.388 C24.5833297,35.7613352 23.794671,35.948 22.936,35.948 C21.8533279,35.948 20.9013374,35.6586696 20.08,35.08 C19.2586626,34.5013304 18.6286689,33.6753387 18.19,32.602 C17.7513311,31.5286613 17.532,30.2826738 17.532,28.864 C17.532,26.8106564 17.9799955,24.9393418 18.876,23.25 C19.7720045,21.5606582 21.0039922,20.2306715 22.572,19.26 C24.1400078,18.2893285 25.8666572,17.804 27.752,17.804 C29.3386746,17.804 30.5939954,18.1493299 31.518,18.84 C32.4420046,19.5306701 32.904,20.4733274 32.904,21.668 C32.904,22.4706707 32.708002,23.1146642 32.316,23.6 C31.923998,24.0853358 31.4106698,24.328 30.776,24.328 C30.4213316,24.328 30.0900015,24.2533341 29.782,24.104 C29.4739985,23.9546659 29.2173344,23.7400014 29.012,23.46 C29.3480017,23.2359989 29.6326655,22.8766691 29.866,22.382 C30.0993345,21.8873309 30.216,21.3880025 30.216,20.884 C30.216,20.3239972 30.0526683,19.8900015 29.726,19.582 C29.3993317,19.2739985 28.9373363,19.12 28.34,19.12 C27.2573279,19.12 26.212005,19.6006619 25.204,20.562 C24.195995,21.5233381 23.3840031,22.7786589 22.768,24.328 C22.1519969,25.8773411 21.844,27.5013248 21.844,29.2 C21.844,30.600007 22.0679978,31.668663 22.516,32.406 C22.9640022,33.143337 23.6079958,33.512 24.448,33.512 C25.456005,33.512 26.3473295,32.9800053 27.122,31.916 C27.8966705,30.8519947 28.517331,29.3026768 28.984,27.268 L32.288,27.296 L30.244,36.704 C29.6466637,39.4853472 28.8020055,41.5293268 27.71,42.836 C26.6179945,44.1426732 25.2040087,44.796 23.468,44.796 Z M35.088,25 L39.12,25 L38.756,26.736 C39.3906698,26.1759972 39.9646641,25.7466682 40.478,25.448 C40.9913359,25.1493318 41.5466637,25 42.144,25 C42.7413363,25 43.2126649,25.2053313 43.558,25.616 C43.9033351,26.0266687 44.076,26.5213304 44.076,27.1 C44.076,27.641336 43.8986684,28.1173313 43.544,28.528 C43.1893316,28.9386687 42.6946698,29.144 42.06,29.144 C41.6493313,29.144 41.3740007,29.046001 41.234,28.85 C41.0939993,28.653999 40.986667,28.3693352 40.912,27.996 C40.8559997,27.7533321 40.8000003,27.5760006 40.744,27.464 C40.6879997,27.3519994 40.5853341,27.296 40.436,27.296 C40.043998,27.296 39.712668,27.3753325 39.442,27.534 C39.171332,27.6926675 38.8213355,27.967998 38.392,28.36 L36.152,39 L32.12,39 L35.088,25 Z M48.388,23.488 C47.7719969,23.488 47.2493355,23.2733355 46.82,22.844 C46.3906645,22.4146645 46.176,21.8920031 46.176,21.276 C46.176,20.6599969 46.3906645,20.1326689 46.82,19.694 C47.2493355,19.2553311 47.7719969,19.036 48.388,19.036 C49.0040031,19.036 49.5313311,19.2553311 49.97,19.694 C50.4086689,20.1326689 50.628,20.6599969 50.628,21.276 C50.628,21.8920031 50.4086689,22.4146645 49.97,22.844 C49.5313311,23.2733355 49.0040031,23.488 48.388,23.488 Z M46.484,39.168 C45.5879955,39.168 44.8646694,38.8880028 44.314,38.328 C43.7633306,37.7679972 43.488,36.9280056 43.488,35.808 C43.488,35.341331 43.5626659,34.7346704 43.712,33.988 L45.616,25 L49.648,25 L47.632,34.52 C47.557333,34.8000014 47.52,35.0986651 47.52,35.416 C47.52,35.7893352 47.6086658,36.0553325 47.786,36.214 C47.9633342,36.3726675 48.2573313,36.452 48.668,36.452 C49.209336,36.452 49.713331,36.2233356 50.18,35.766 C50.646669,35.3086644 50.9826656,34.7160036 51.188,33.988 L52.364,33.988 C51.6733299,36.0040101 50.7866721,37.3713297 49.704,38.09 C48.6213279,38.8086703 47.5480053,39.168 46.484,39.168 Z M54.38,39.168 C53.4839955,39.168 52.7280031,38.9953351 52.112,38.65 C51.4959969,38.3046649 51.0386682,37.8566694 50.74,37.306 C50.4413318,36.7553306 50.292,36.1813363 50.292,35.584 C50.292,34.9679969 50.4366652,34.4313356 50.726,33.974 C51.0153348,33.5166644 51.3653313,33.1853344 51.776,32.98 C52.5040036,31.6733268 53.138664,30.3526733 53.68,29.018 C54.221336,27.6833267 54.7346642,26.2413411 55.22,24.692 L59.364,24.132 C59.4573338,26.5213453 59.6159989,29.1066528 59.84,31.888 C59.9333338,33.0080056 59.98,33.8199975 59.98,34.324 C59.98,34.7533355 59.942667,35.1079986 59.868,35.388 C60.7453377,34.8839975 61.417331,34.4173355 61.884,33.988 L63.06,33.988 C61.8653274,35.3693402 60.4373416,36.5359952 58.776,37.488 C58.234664,38.0666696 57.5673373,38.491332 56.774,38.762 C55.9806627,39.032668 55.1826707,39.168 54.38,39.168 Z M53.484,36.956 C54.1746701,36.956 54.753331,36.7506687 55.22,36.34 C55.686669,35.9293313 55.92,35.2666712 55.92,34.352 C55.92,33.7919972 55.8640006,33.008005 55.752,32 C55.5653324,29.8719894 55.4440003,28.4440036 55.388,27.716 C54.9399978,29.190674 54.1840053,30.9546564 53.12,33.008 C53.5493355,33.2320011 53.764,33.5586645 53.764,33.988 C53.764,34.3426684 53.6473345,34.6599986 53.414,34.94 C53.1806655,35.2200014 52.8866684,35.36 52.532,35.36 C52.139998,35.36 51.8880006,35.2386679 51.776,34.996 C51.776,35.6680034 51.911332,36.1626651 52.182,36.48 C52.452668,36.7973349 52.8866637,36.956 53.484,36.956 Z M64.516,39.168 C63.5639952,39.168 62.8593356,38.8786696 62.402,38.3 C61.9446644,37.7213304 61.716,36.9560048 61.716,36.004 C61.716,35.5186642 61.7719994,35.0240025 61.884,34.52 L63.676,26.12 L62.752,26.12 L62.976,25 L63.9,25 L64.74,21.136 L68.884,20.576 C68.7159992,21.2853369 68.6226668,21.7053327 68.604,21.836 C68.4733327,22.3586693 68.2493349,23.4133254 67.932,25 L69.612,25 L69.388,26.12 L67.708,26.12 L65.916,34.52 C65.8226662,34.9306687 65.776,35.2573321 65.776,35.5 C65.776,36.1720034 66.1026634,36.508 66.756,36.508 C67.0920017,36.508 67.3346659,36.4800003 67.484,36.424 C67.1106648,37.5066721 66.6720025,38.2346648 66.168,38.608 C65.6639975,38.9813352 65.1133363,39.168 64.516,39.168 Z" id="Grist"></path>
        </g>
    </g>
</svg>